<svg width="58" height="55" viewBox="0 0 58 55" fill="none" xmlns="http://www.w3.org/2000/svg">
<path d="M48.575 17.6459L46.1583 19.9376C50.5083 24.0626 50.5083 30.4792 46.1583 34.8334L48.575 37.1251C54.6167 31.8542 54.6167 23.1459 48.575 17.6459ZM43.5 22.4584L41.0833 24.7501C42.2917 26.3542 42.2917 28.4167 41.0833 30.0209L43.5 32.3126C46.4 29.5626 46.4 25.4376 43.5 22.4584ZM33.8333 2.29175H9.66667C7.00834 2.29175 4.83334 4.35425 4.83334 6.87508V48.1251C4.83334 50.6459 7.00834 52.7084 9.66667 52.7084H33.8333C36.4917 52.7084 38.6667 50.6459 38.6667 48.1251V6.87508C38.6667 4.35425 36.4917 2.29175 33.8333 2.29175ZM33.8333 45.8334H9.66667V9.16675H33.8333V45.8334Z" fill="#1B2121"/>
</svg>
